<svg xmlns="http://www.w3.org/2000/svg" version="1.1" xmlns:xlink="http://www.w3.org/1999/xlink" xmlns:svgjs="http://svgjs.dev/svgjs" width="60" height="60"><svg id="SvgjsSvg1003" xmlns="http://www.w3.org/2000/svg" viewBox="0 0 60 60"><defs><style>.cls-1{fill:#ffa91c;}</style></defs><g id="SvgjsG1002"><path class="cls-1" d="M56.46,29.98c.52-.27.81-.72.81-1.23,0-.51-.3-1.02-.76-1.27-.47-.25-1.61-.81-1.66-.84-.08-.04-.17-.06-.26-.06v1.52s0,.29,0,.29l-5.33,2.59c.5.63.93,1.29,1.3,1.99,1.63-.8,2.99-1.48,3.93-1.97.04-.02.08-.04.12-.06,1.05-.54,1.73-.9,1.85-.95Z"></path><path class="cls-1" d="M51.86,41.21c1.06-.53,1.96-.98,2.64-1.33,1.12-.58,1.84-.95,1.97-1.01.52-.27.81-.72.81-1.23,0-.51-.3-1.02-.76-1.27-.47-.25-1.61-.81-1.66-.84-.08-.04-.17-.06-.26-.06v1.8s-2.57,1.24-2.57,1.24c0,.17.02.33.02.5,0,.74-.08,1.47-.2,2.19Z"></path><path class="cls-1" d="M56.52,18.59c-.47-.25-1.61-.81-1.66-.84-.08-.04-.17-.06-.26-.06v1.52s0,.29,0,.29l-8.55,4.15-5.14,2.49c1.18.17,2.33.5,3.41.98,1.52-.74,2.99-1.45,4.34-2.11,2.48-1.21,4.55-2.24,5.83-2.9.04-.02.08-.04.12-.06,1.05-.54,1.73-.9,1.85-.95.52-.27.81-.72.81-1.23,0-.51-.3-1.02-.76-1.27Z"></path><path class="cls-1" d="M30.55,48.94l-7.71,3.74L3.6,42.76l-.52-.27v-6.36l.58.3,17.44,9.05c.66.35,1.22.48,1.73.48.83,0,1.52-.36,2.25-.76.04-.02.78-.37,2-.95-.31-.7-.55-1.43-.73-2.18l-3.52,1.71-18.59-9.59-.64-.33-.52-.27v-6.36l.58.3,6.52,3.38,10.92,5.67c.66.35,1.22.48,1.73.48.83,0,1.52-.36,2.25-.76.03-.02.52-.25,1.34-.64.29-1.1.73-2.16,1.3-3.15l-4.89,2.37-10.11-5.22-8.13-4.19-1-.51-.52-.27v-5.59l.58.3,6.34,3.3,8.22,4.27,2.82,1.47c.08.04.19.1.33.15.35.15.84.31,1.32.31.05,0,.09,0,.14,0h.01s0,0,.01,0c.01,0,.03,0,.04,0,.1,0,.2-.03.31-.05.53-.11,1.08-.36,1.53-.58l9.31-4.59,6.22-3.07,8.77-4.32,5.57-2.75.27-.13,1.32-.69c.43-.22.7-.64.71-1.11h0c0-.49-.27-.91-.71-1.14L36.18.07c-.16-.09-.36-.09-.53,0L1.28,17.07h0s-.04.02-.05.03c-.01,0-.03.02-.04.03-.02.01-.03.02-.05.04-1.53,1.25-1.2,5.36-.8,7.18.27,1.19.56,1.61.72,1.78-1.44,1.32-1.12,5.33-.72,7.1.27,1.2.56,1.62.72,1.79-1.44,1.32-1.12,5.33-.72,7.11.32,1.41.67,1.75.79,1.85.02.02.04.04.07.05.02.01.04.03.06.04l.06.03,19.79,10.28c.66.35,1.22.48,1.73.48.83,0,1.52-.36,2.25-.76.09-.04,3.32-1.57,7.66-3.64-.77-.43-1.51-.93-2.19-1.51Z"></path><path class="cls-1" d="M59.21,55.38l-7.51-7.51c-.72-.72-1.74-.94-2.65-.68l-1.35-1.35c1.53-1.94,2.37-4.32,2.37-6.82,0-2.95-1.15-5.72-3.24-7.81s-4.86-3.23-7.81-3.23c-2.95,0-5.72,1.15-7.81,3.24-2.08,2.09-3.23,4.86-3.23,7.81,0,2.95,1.15,5.72,3.24,7.81,1.76,1.76,4.02,2.85,6.45,3.15.45.05.9.08,1.36.08,2.51,0,4.88-.84,6.82-2.37l1.35,1.35c-.26.91-.04,1.93.68,2.65l7.51,7.51c1.06,1.06,2.77,1.05,3.82,0,1.06-1.06,1.06-2.77,0-3.82ZM39.02,47.14c-2.17,0-4.2-.84-5.74-2.37-1.53-1.53-2.38-3.57-2.38-5.73,0-2.17.84-4.2,2.37-5.74h0c1.53-1.53,3.57-2.38,5.73-2.38,2.17,0,4.2.84,5.74,2.37,1.53,1.53,2.38,3.57,2.38,5.73s-.84,4.2-2.37,5.74c-1.53,1.53-3.57,2.38-5.73,2.38Z"></path></g></svg><style>@media (prefers-color-scheme: light) { :root { filter: none; } }
@media (prefers-color-scheme: dark) { :root { filter: none; } }
</style></svg>