<?xml version="1.0" encoding="UTF-8"?><svg id="_レイヤー_2" xmlns="http://www.w3.org/2000/svg" viewBox="0 0 300 81.48"><g id="_テキスト"><path d="M75.71,72.11q-.1.14-.29.87c-.41,1.48-1.09,3-1.82,4.05-.83,1.19-2.07,2.35-3.45,3.21-.8.5-1.43.81-2.58,1.25-.21-.45-.32-.6-.69-.97,1.26-.38,2.09-.77,3.17-1.48,2.3-1.54,3.63-3.54,4.41-6.68h-7.13c-.71,0-1.11.01-1.57.08v-1.12c.53.07.81.08,1.58.08h6.63c.56,0,.66-.01.91-.11l.83.83ZM75.12,69.15c.52.63.91,1.22,1.26,1.91l-.71.32c-.34-.7-.74-1.33-1.25-1.93l.7-.29ZM76.46,68.61c.52.63.91,1.22,1.27,1.91l-.71.32c-.35-.7-.76-1.33-1.26-1.93l.7-.29Z"/><path d="M99.12,73.16c.56.97.87,1.62,1.39,3.11l-.95.32c-.34-1.23-.73-2.17-1.32-3.14l.88-.29ZM107.02,73.07q-.08.22-.31,1.13c-.22.98-.73,2.27-1.23,3.14-.99,1.71-2.47,3-4.64,4.05-.21-.35-.32-.49-.64-.78,2.16-.97,3.47-2.05,4.44-3.66.53-.88.94-1.93,1.19-3.01.1-.46.15-.78.15-.95v-.14l1.04.22ZM101.98,72.6c.74,1.33.99,1.89,1.36,3.01l-.92.32c-.25-.99-.69-2.02-1.29-3.07l.85-.27Z"/><path d="M134.66,69.73q-.13.18-.31.57c-.36.76-.49.99-.64,1.25q.18-.04,4.23-.11c.49,0,.53-.01.73-.1l.6.59c-.13.17-.13.18-.28.69-.59,1.97-1.61,3.88-2.8,5.27-1.29,1.47-2.83,2.58-4.87,3.5-.22-.41-.34-.55-.7-.83,2.12-.87,3.6-1.93,4.94-3.54,1.08-1.3,1.92-2.94,2.41-4.69l-4.72.08c-.85,1.37-1.98,2.61-3.35,3.64-.24-.35-.38-.48-.78-.73,1.48-.97,2.55-2.13,3.52-3.84.53-.92.81-1.55.88-2.05l1.15.29Z"/><path d="M164.12,70.88c-.06.18-.08.29-.18.95-.59,3.99-1.7,6.63-3.7,8.74-.36-.39-.49-.49-.9-.73.87-.81,1.44-1.6,2.03-2.77.69-1.39,1.18-3.03,1.44-4.86.08-.56.14-1.06.14-1.32,0-.04,0-.13-.01-.22l1.18.21ZM168,70.67c.03.73.29,2.12.64,3.36.69,2.51,1.75,4.43,3.18,5.79-.39.27-.53.38-.87.78-.94-1.01-1.64-2.12-2.34-3.64-.67-1.51-1.18-3.26-1.47-5.15-.08-.52-.11-.7-.18-.92l1.04-.21ZM171.89,71.38c0,.8-.64,1.44-1.44,1.44s-1.44-.64-1.44-1.44.64-1.43,1.44-1.43,1.44.64,1.44,1.43ZM169.6,71.38c0,.48.39.85.85.85s.85-.38.85-.85-.38-.84-.85-.84-.85.38-.85.84Z"/><path d="M202.77,70.41c-.25.18-.27.21-.62.59-.88.92-2.07,1.95-3.28,2.82v5.97c0,.8.01,1.11.07,1.48h-1.22c.07-.36.08-.69.08-1.46v-5.32c-1.82,1.12-2.84,1.58-5.41,2.45-.2-.45-.27-.59-.55-.94,2.63-.69,5.06-1.89,7.27-3.63,1.3-1.01,2.28-1.99,2.68-2.65l.97.69Z"/><path d="M227.04,70.24q-.06.35-.08,1.2c-.11,3.8-.22,4.83-.76,6.25-.48,1.3-1.15,2.24-2.42,3.46-.28-.36-.42-.49-.84-.76,1.15-.91,1.91-1.92,2.37-3.22.43-1.22.63-3.05.63-6.01,0-.5-.01-.67-.06-.99l1.16.07ZM230.51,70.09c-.07.34-.08.59-.08,1.23l-.08,8.46c1.16-.43,1.88-.88,2.61-1.62.77-.8,1.32-1.72,1.65-2.8.29.38.41.5.78.81-.69,1.61-1.61,2.77-2.82,3.6-.62.42-1.18.7-2,1.02q-.25.1-.45.17c-.17.07-.2.08-.32.15l-.56-.64c.08-.24.1-.35.1-.95l.08-8.19q0-.91-.06-1.25h1.15Z"/><path d="M40.31,44.55c-.86,1.68-2.1,3.08-3.71,4.2-1.61,1.12-3.54,1.96-5.8,2.52-2.26.56-4.77.84-7.52.84H0V3.09h22.72c5.03,0,8.98,1.14,11.85,3.43,2.87,2.29,4.3,5.37,4.3,9.24v.14c0,1.4-.17,2.64-.52,3.71-.35,1.07-.81,2.04-1.39,2.91-.58.86-1.25,1.62-2.02,2.28-.77.65-1.59,1.21-2.47,1.68,2.83,1.07,5.07,2.53,6.69,4.38,1.63,1.84,2.44,4.4,2.44,7.67v.14c0,2.24-.43,4.2-1.29,5.88ZM28.22,17.59c0-1.63-.61-2.88-1.82-3.75-1.21-.86-2.97-1.3-5.25-1.3h-10.64v10.36h9.94c2.38,0,4.27-.41,5.67-1.23,1.4-.82,2.1-2.14,2.1-3.96v-.14ZM30.95,37.2c0-1.63-.63-2.93-1.89-3.89-1.26-.96-3.29-1.44-6.09-1.44h-12.47v10.78h12.82c2.38,0,4.25-.43,5.6-1.3,1.35-.86,2.03-2.21,2.03-4.03v-.14Z"/><path d="M85.3,41.01c-1.03,2.36-2.45,4.42-4.27,6.2-1.82,1.77-3.97,3.18-6.44,4.2-2.48,1.03-5.18,1.54-8.12,1.54s-5.58-.5-8.05-1.51c-2.48-1-4.61-2.38-6.41-4.13-1.8-1.75-3.21-3.8-4.24-6.16-1.03-2.36-1.54-4.89-1.54-7.6v-.14c0-2.71.51-5.24,1.54-7.6,1.03-2.36,2.45-4.42,4.27-6.2,1.82-1.77,3.97-3.17,6.44-4.2,2.47-1.03,5.18-1.54,8.12-1.54s5.58.5,8.05,1.51c2.47,1,4.61,2.38,6.41,4.13,1.8,1.75,3.21,3.81,4.24,6.16,1.03,2.36,1.54,4.89,1.54,7.6v.14c0,2.71-.51,5.24-1.54,7.6ZM76.33,33.42c0-1.4-.23-2.72-.7-3.96-.47-1.24-1.14-2.33-2.03-3.29-.89-.96-1.94-1.72-3.15-2.28-1.21-.56-2.55-.84-3.99-.84-1.54,0-2.91.27-4.1.81-1.19.54-2.21,1.27-3.05,2.21-.84.93-1.48,2.02-1.93,3.26-.44,1.24-.67,2.56-.67,3.96v.14c0,1.4.23,2.72.7,3.96.47,1.24,1.14,2.34,2.03,3.29.89.96,1.93,1.72,3.12,2.28s2.53.84,4.03.84,2.91-.27,4.1-.81c1.19-.54,2.21-1.27,3.05-2.21.84-.93,1.48-2.02,1.93-3.26.44-1.24.67-2.56.67-3.96v-.14Z"/><path d="M129.91,41.01c-1.03,2.36-2.45,4.42-4.27,6.2-1.82,1.77-3.97,3.18-6.44,4.2-2.48,1.03-5.18,1.54-8.12,1.54s-5.58-.5-8.05-1.51c-2.48-1-4.61-2.38-6.41-4.13-1.8-1.75-3.21-3.8-4.24-6.16-1.03-2.36-1.54-4.89-1.54-7.6v-.14c0-2.71.51-5.24,1.54-7.6,1.03-2.36,2.45-4.42,4.27-6.2,1.82-1.77,3.97-3.17,6.44-4.2,2.47-1.03,5.18-1.54,8.12-1.54s5.58.5,8.05,1.51c2.47,1,4.61,2.38,6.41,4.13,1.8,1.75,3.21,3.81,4.24,6.16,1.03,2.36,1.54,4.89,1.54,7.6v.14c0,2.71-.51,5.24-1.54,7.6ZM120.94,33.42c0-1.4-.23-2.72-.7-3.96-.47-1.24-1.14-2.33-2.03-3.29-.89-.96-1.94-1.72-3.15-2.28-1.21-.56-2.55-.84-3.99-.84-1.54,0-2.91.27-4.1.81-1.19.54-2.21,1.27-3.05,2.21-.84.93-1.48,2.02-1.93,3.26-.44,1.24-.67,2.56-.67,3.96v.14c0,1.4.23,2.72.7,3.96.47,1.24,1.14,2.34,2.03,3.29.89.96,1.93,1.72,3.12,2.28,1.19.56,2.53.84,4.03.84s2.91-.27,4.1-.81c1.19-.54,2.21-1.27,3.05-2.21.84-.93,1.48-2.02,1.93-3.26.44-1.24.67-2.56.67-3.96v-.14Z"/><path d="M161.56,52.11l-9.8-15.34-3.71,3.92v11.42h-10.64V.99h10.64v27.24l12.47-13.66h12.75l-14.29,14.78,14.78,22.76h-12.19Z"/><path d="M215.48,27.67c-1.03,2.15-2.44,3.95-4.24,5.39-1.8,1.45-3.9,2.53-6.3,3.26-2.41.72-4.98,1.09-7.74,1.09h-8.19v14.71h-10.78V3.09h20.03c2.94,0,5.57.41,7.88,1.23,2.31.82,4.27,1.97,5.88,3.47,1.61,1.49,2.85,3.28,3.71,5.36.86,2.08,1.3,4.38,1.3,6.9v.14c0,2.85-.51,5.35-1.54,7.49ZM206.1,20.25c0-2.43-.78-4.27-2.35-5.53-1.56-1.26-3.7-1.89-6.41-1.89h-8.33v14.99h8.54c2.71,0,4.81-.71,6.3-2.14,1.49-1.42,2.24-3.19,2.24-5.29v-.14Z"/><path d="M223.47,52.11V14.58h10.64v37.54h-10.64Z"/><path d="M243.98,52.11V.99h10.64v51.12h-10.64Z"/><path d="M296.49,26.23c.17.34.36.74.57,1.2l-22.62,13.06c1.66,1.85,3.5,2.9,5.51,3.17,2.01.27,4.05-.2,6.11-1.39,1.54-.89,2.76-1.94,3.67-3.17.91-1.23,1.67-2.8,2.29-4.72l7.97,1.62c-.44,2.79-1.44,5.35-3.01,7.68-1.57,2.33-3.82,4.35-6.77,6.05-2.43,1.4-4.91,2.3-7.46,2.69-2.55.39-5.01.28-7.39-.34-2.38-.62-4.58-1.71-6.61-3.26-2.03-1.55-3.77-3.58-5.21-6.09l-.07-.12c-1.33-2.3-2.2-4.72-2.6-7.23-.4-2.52-.34-4.95.19-7.31.53-2.35,1.52-4.54,2.96-6.56,1.45-2.02,3.36-3.72,5.75-5.1,2.71-1.56,5.33-2.43,7.88-2.61,2.54-.17,4.94.18,7.2,1.06,2.26.88,4.31,2.2,6.17,3.96,1.85,1.76,3.44,3.79,4.77,6.1l.07.12c.26.45.47.84.64,1.17ZM279.82,23.04c-1.91-.6-3.83-.33-5.77.79-1.94,1.12-3.15,2.65-3.61,4.59-.47,1.94-.28,4.07.57,6.38l13.89-8.02c-1.47-1.9-3.16-3.15-5.07-3.74Z"/><path d="M236.39,0c-4.47.45-7.06,2.97-7.6,5.18-.54-2.21-3.13-4.73-7.6-5.18l-1.6,8.99c3.43-.3,7.37.88,9.2,3.46h0c1.83-2.58,5.76-3.76,9.2-3.46l-1.6-8.99Z"/></g></svg>