<?xml version="1.0" encoding="UTF-8"?><svg id="_レイヤー_2" xmlns="http://www.w3.org/2000/svg" viewBox="0 0 300 60"><defs><style>.cls-1{fill:none;}.cls-2{fill:#ffa91c;}</style></defs><g id="_フッター"><rect class="cls-1" x="0" width="300" height="60"/><path d="M127.37,39.94c-.47.92-1.15,1.69-2.04,2.31-.88.62-1.95,1.08-3.19,1.39-1.24.31-2.62.46-4.13.46h-12.8v-26.96h12.49c2.77,0,4.94.63,6.52,1.89,1.58,1.26,2.36,2.95,2.36,5.08v.08c0,.77-.1,1.45-.29,2.04-.19.59-.45,1.12-.77,1.6-.32.48-.69.89-1.11,1.25-.42.36-.87.67-1.36.92,1.56.59,2.79,1.39,3.68,2.41.89,1.01,1.34,2.42,1.34,4.22v.08c0,1.23-.24,2.31-.71,3.23ZM120.73,25.11c0-.9-.33-1.58-1-2.06-.67-.47-1.63-.71-2.89-.71h-5.85v5.7h5.47c1.31,0,2.35-.22,3.12-.67.77-.45,1.16-1.17,1.16-2.18v-.08ZM122.23,35.89c0-.9-.35-1.61-1.04-2.14-.69-.53-1.81-.79-3.35-.79h-6.85v5.93h7.05c1.31,0,2.34-.24,3.08-.71.74-.47,1.12-1.21,1.12-2.21v-.08Z"/><path d="M152.11,37.99c-.57,1.3-1.35,2.43-2.35,3.41-1,.98-2.18,1.75-3.54,2.31-1.36.56-2.85.85-4.47.85s-3.07-.28-4.43-.83c-1.36-.55-2.54-1.31-3.52-2.27-.99-.96-1.77-2.09-2.33-3.39-.57-1.3-.85-2.69-.85-4.18v-.08c0-1.49.28-2.88.85-4.18.56-1.3,1.35-2.43,2.35-3.41,1-.98,2.18-1.75,3.54-2.31,1.36-.56,2.85-.85,4.47-.85s3.07.28,4.43.83c1.36.55,2.53,1.31,3.52,2.27.99.96,1.76,2.09,2.33,3.39.56,1.3.85,2.69.85,4.18v.08c0,1.49-.28,2.88-.85,4.18ZM147.18,33.82c0-.77-.13-1.5-.39-2.18-.26-.68-.63-1.28-1.12-1.81-.49-.53-1.07-.94-1.73-1.25-.67-.31-1.4-.46-2.2-.46-.85,0-1.6.15-2.25.44-.65.3-1.21.7-1.68,1.21-.46.51-.82,1.11-1.06,1.79-.24.68-.37,1.41-.37,2.18v.08c0,.77.13,1.5.39,2.18.26.68.63,1.28,1.12,1.81.49.53,1.06.94,1.71,1.25s1.39.46,2.21.46,1.6-.15,2.25-.44c.65-.29,1.21-.7,1.68-1.21.46-.51.81-1.11,1.06-1.79.24-.68.37-1.41.37-2.18v-.08Z"/><path d="M176.64,37.99c-.57,1.3-1.35,2.43-2.35,3.41-1,.98-2.18,1.75-3.54,2.31-1.36.56-2.85.85-4.47.85s-3.07-.28-4.43-.83c-1.36-.55-2.54-1.31-3.52-2.27-.99-.96-1.77-2.09-2.33-3.39-.57-1.3-.85-2.69-.85-4.18v-.08c0-1.49.28-2.88.85-4.18.56-1.3,1.35-2.43,2.35-3.41,1-.98,2.18-1.75,3.54-2.31,1.36-.56,2.85-.85,4.47-.85s3.07.28,4.43.83c1.36.55,2.53,1.31,3.52,2.27.99.96,1.76,2.09,2.33,3.39.56,1.3.85,2.69.85,4.18v.08c0,1.49-.28,2.88-.85,4.18ZM171.71,33.82c0-.77-.13-1.5-.39-2.18-.26-.68-.63-1.28-1.12-1.81-.49-.53-1.07-.94-1.73-1.25-.67-.31-1.4-.46-2.2-.46-.85,0-1.6.15-2.25.44-.65.3-1.21.7-1.68,1.21-.46.51-.82,1.11-1.06,1.79-.24.68-.37,1.41-.37,2.18v.08c0,.77.13,1.5.39,2.18.26.68.63,1.28,1.12,1.81.49.53,1.06.94,1.71,1.25s1.39.46,2.21.46,1.6-.15,2.25-.44c.65-.29,1.21-.7,1.68-1.21.46-.51.81-1.11,1.06-1.79.24-.68.37-1.41.37-2.18v-.08Z"/><path d="M194.05,44.1l-5.39-8.43-2.04,2.16v6.28h-5.85V15.99h5.85v14.98l6.85-7.51h7.01l-7.86,8.13,8.13,12.52h-6.7Z"/><path d="M223.7,30.66c-.56,1.18-1.34,2.17-2.33,2.97-.99.8-2.14,1.39-3.47,1.79-1.32.4-2.74.6-4.26.6h-4.51v8.09h-5.93v-26.96h11.01c1.62,0,3.06.23,4.33.67,1.27.45,2.35,1.08,3.23,1.91.89.82,1.57,1.8,2.04,2.95.47,1.14.71,2.41.71,3.79v.08c0,1.57-.28,2.94-.85,4.12ZM218.54,26.58c0-1.33-.43-2.35-1.29-3.04-.86-.69-2.04-1.04-3.52-1.04h-4.58v8.24h4.7c1.49,0,2.64-.39,3.47-1.17.82-.78,1.23-1.75,1.23-2.91v-.08Z"/><path d="M228.09,44.1v-20.64h5.85v20.64h-5.85Z"/><path d="M239.37,44.1V15.99h5.85v28.11h-5.85Z"/><path d="M268.25,29.86c.09.18.2.41.32.66l-12.44,7.18c.91,1.02,1.92,1.6,3.03,1.74,1.11.15,2.23-.11,3.36-.76.84-.49,1.52-1.07,2.02-1.74.5-.67.92-1.54,1.26-2.59l4.38.89c-.24,1.53-.79,2.94-1.65,4.22-.86,1.28-2.1,2.39-3.73,3.33-1.33.77-2.7,1.26-4.1,1.48-1.4.22-2.76.15-4.07-.19-1.31-.34-2.52-.94-3.64-1.79-1.11-.85-2.07-1.97-2.87-3.35l-.04-.07c-.73-1.27-1.21-2.59-1.43-3.98-.22-1.38-.19-2.72.1-4.02.29-1.29.83-2.5,1.63-3.61.8-1.11,1.85-2.05,3.16-2.8,1.49-.86,2.93-1.34,4.33-1.43,1.4-.1,2.72.1,3.96.58,1.24.48,2.37,1.21,3.39,2.18,1.02.97,1.89,2.09,2.63,3.35l.04.07c.14.24.26.46.35.64ZM259.08,28.11c-1.05-.33-2.11-.18-3.17.43s-1.73,1.46-1.99,2.53c-.26,1.07-.15,2.24.31,3.51l7.64-4.41c-.81-1.04-1.74-1.73-2.79-2.06Z"/><path d="M235.2,15.44c-2.46.25-3.88,1.63-4.18,2.85-.29-1.22-1.72-2.6-4.18-2.85l-.88,4.94c1.89-.17,4.05.48,5.06,1.9h0c1.01-1.42,3.17-2.07,5.06-1.9l-.88-4.94Z"/><path class="cls-2" d="M86.29,29.98c.52-.27.81-.72.81-1.23,0-.51-.3-1.02-.76-1.27-.47-.25-1.61-.81-1.66-.84-.08-.04-.17-.06-.26-.06v1.52s0,.29,0,.29l-5.33,2.59c.5.63.93,1.29,1.3,1.99,1.63-.8,2.99-1.48,3.93-1.97.04-.02.08-.04.12-.06,1.05-.54,1.73-.9,1.85-.95Z"/><path class="cls-2" d="M81.68,41.21c1.06-.53,1.96-.98,2.64-1.33,1.12-.58,1.84-.95,1.97-1.01.52-.27.81-.72.81-1.23,0-.51-.3-1.02-.76-1.27-.47-.25-1.61-.81-1.66-.84-.08-.04-.17-.06-.26-.06v1.8s-2.57,1.24-2.57,1.24c0,.17.02.33.02.5,0,.74-.08,1.47-.2,2.19Z"/><path class="cls-2" d="M86.35,18.59c-.47-.25-1.61-.81-1.66-.84-.08-.04-.17-.06-.26-.06v1.52s0,.29,0,.29l-8.55,4.15-5.14,2.49c1.18.17,2.33.5,3.41.98,1.52-.74,2.99-1.45,4.34-2.11,2.48-1.21,4.55-2.24,5.83-2.9.04-.02.08-.04.12-.06,1.05-.54,1.73-.9,1.85-.95.52-.27.81-.72.81-1.23,0-.51-.3-1.02-.76-1.27Z"/><path class="cls-2" d="M60.37,48.94l-7.71,3.74-19.23-9.92-.52-.27v-6.36l.58.3,17.44,9.05c.66.35,1.22.48,1.73.48.83,0,1.52-.36,2.25-.76.04-.02.78-.37,2-.95-.31-.7-.55-1.43-.73-2.18l-3.52,1.71-18.59-9.59-.64-.33-.52-.27v-6.36l.58.3,6.52,3.38,10.92,5.67c.66.35,1.22.48,1.73.48.83,0,1.52-.36,2.25-.76.03-.02.52-.25,1.34-.64.29-1.1.73-2.16,1.3-3.15l-4.89,2.37-10.11-5.22-8.13-4.19-1-.51-.52-.27v-5.59l.58.3,6.34,3.3,8.22,4.27,2.82,1.47c.08.04.19.1.33.15.35.15.84.31,1.32.31.05,0,.09,0,.14,0h.01s0,0,.01,0c.01,0,.03,0,.04,0,.1,0,.2-.03.31-.05.53-.11,1.08-.36,1.53-.58l9.31-4.59,6.22-3.07,8.77-4.32,5.57-2.75.27-.13,1.32-.69c.43-.22.7-.64.71-1.11h0c0-.49-.27-.91-.71-1.14L66,.07c-.16-.09-.36-.09-.53,0L31.1,17.07h0s-.04.02-.05.03c-.01,0-.03.02-.04.03-.02.01-.03.02-.05.04-1.53,1.25-1.2,5.36-.8,7.18.27,1.19.56,1.61.72,1.78-1.44,1.32-1.12,5.33-.72,7.1.27,1.2.56,1.62.72,1.79-1.44,1.32-1.12,5.33-.72,7.11.32,1.41.67,1.75.79,1.85.02.02.04.04.07.05.02.01.04.03.06.04l.06.03,19.79,10.28c.66.35,1.22.48,1.73.48.83,0,1.52-.36,2.25-.76.09-.04,3.32-1.57,7.66-3.64-.77-.43-1.51-.93-2.19-1.51Z"/><path class="cls-2" d="M89.03,55.38l-7.51-7.51c-.72-.72-1.74-.94-2.65-.68l-1.35-1.35c1.53-1.94,2.37-4.32,2.37-6.82,0-2.95-1.15-5.72-3.24-7.81s-4.86-3.23-7.81-3.23c-2.95,0-5.72,1.15-7.81,3.24-2.08,2.09-3.23,4.86-3.23,7.81,0,2.95,1.15,5.72,3.24,7.81,1.76,1.76,4.02,2.85,6.45,3.15.45.05.9.08,1.36.08,2.51,0,4.88-.84,6.82-2.37l1.35,1.35c-.26.91-.04,1.93.68,2.65l7.51,7.51c1.06,1.06,2.77,1.05,3.82,0,1.06-1.06,1.06-2.77,0-3.82ZM68.85,47.14c-2.17,0-4.2-.84-5.74-2.37-1.53-1.53-2.38-3.57-2.38-5.73,0-2.17.84-4.2,2.37-5.74h0c1.53-1.53,3.57-2.38,5.73-2.38,2.17,0,4.2.84,5.74,2.37,1.53,1.53,2.38,3.57,2.38,5.73s-.84,4.2-2.37,5.74c-1.53,1.53-3.57,2.38-5.73,2.38Z"/></g></svg>